<?xml version="1.0" encoding="UTF-8"?>
<svg width="35px" height="35px" viewBox="0 0 35 35" version="1.1" xmlns="http://www.w3.org/2000/svg" xmlns:xlink="http://www.w3.org/1999/xlink">
    <!-- Generator: Sketch 49.3 (51167) - http://www.bohemiancoding.com/sketch -->
    <title>Page 1</title>
    <desc>Created with Sketch.</desc>
    <defs></defs>
    <g id="Page-1" stroke="none" stroke-width="1" fill="none" fill-rule="evenodd">
        <g id="Home-(Demo)" transform="translate(-42.000000, -3014.000000)" fill="#FFFFFF">
            <g id="Page-1" transform="translate(42.000000, 3014.000000)">
                <path d="M17.4832292,1.575 C10.5926042,1.575 4.48510417,6.01270833 2.35447917,12.5664583 C0.2253125,19.1202083 2.55864583,26.3010417 8.13385417,30.3508333 C13.7090625,34.4035417 21.2588542,34.4035417 26.8340625,30.3508333 C32.4092708,26.3010417 34.7426042,19.1202083 32.6119792,12.5664583 C30.4828125,6.01270833 24.3753125,1.575 17.4832292,1.575 M34.1096875,12.079375 C36.4517708,19.2835417 33.8865625,27.1745833 27.7601042,31.6254167 C21.6321875,36.0777083 13.3342708,36.0777083 7.2078125,31.6254167 C1.07989583,27.1745833 -1.48385417,19.2835417 0.858229167,12.079375 C3.19739583,4.87666667 9.9115625,0 17.4832292,0 C25.0563542,0 31.7705208,4.87666667 34.1096875,12.079375" id="Fill-1"></path>
                <path d="M19.8600208,12.4570833 C20.3339792,12.4395833 20.8064792,12.4527083 21.2833542,12.4527083 L21.4787708,12.4527083 L21.4787708,9.98520833 C21.2264792,9.96041667 20.9610625,9.92395833 20.6956458,9.91083333 C20.2085625,9.88895833 19.7214792,9.865625 19.2343958,9.87583333 C18.4935625,9.891875 17.7877292,10.0727083 17.1737708,10.513125 C16.4693958,11.020625 16.0829375,11.7322917 15.9356458,12.5722917 C15.8743958,12.9179167 15.8598125,13.278125 15.8496042,13.6310417 C15.8364792,14.1852083 15.8481458,14.7364583 15.8481458,15.290625 L15.8481458,15.4991667 L13.4871042,15.4991667 L13.4871042,18.2554167 L15.8335625,18.2554167 L15.8335625,25.1810417 L18.7006458,25.1810417 L18.7006458,18.265625 L21.0412708,18.265625 C21.1608542,17.3483333 21.2775208,16.44125 21.4000208,15.4977083 C21.2118958,15.4977083 21.0441875,15.49625 20.8735625,15.4977083 C20.2085625,15.500625 18.6816875,15.4977083 18.6816875,15.4977083 C18.6816875,15.4977083 18.6889792,14.13125 18.7050208,13.5391667 C18.7298125,12.7283333 19.2096042,12.4804167 19.8600208,12.4570833" id="Fill-3"></path>
            </g>
        </g>
    </g>
</svg>