<?xml version="1.0" encoding="UTF-8"?>
<svg width="35px" height="34px" viewBox="0 0 35 34" version="1.1" xmlns="http://www.w3.org/2000/svg" xmlns:xlink="http://www.w3.org/1999/xlink">
    <!-- Generator: Sketch 49.3 (51167) - http://www.bohemiancoding.com/sketch -->
    <title>Page 1</title>
    <desc>Created with Sketch.</desc>
    <defs>
        <polygon id="path-1" points="0 0.0336 34.9674046 0.0336 34.9674046 33.59965 0 33.59965"></polygon>
    </defs>
    <g id="Page-1" stroke="none" stroke-width="1" fill="none" fill-rule="evenodd">
        <g id="Home-(Demo)" transform="translate(-207.000000, -3015.000000)">
            <g id="Page-1" transform="translate(207.000000, 3014.000000)">
                <g id="Group-3" transform="translate(0.000000, 1.366540)">
                    <mask id="mask-2" fill="white">
                        <use xlink:href="#path-1"></use>
                    </mask>
                    <g id="Clip-2"></g>
                    <path d="M17.4839583,1.5456 C10.591875,1.5456 4.484375,5.8058 2.35520833,12.0974 C0.224583333,18.389 2.55791667,25.2826 8.13458333,29.1704 C13.7083333,33.061 21.2595833,33.061 26.8333333,29.1704 C32.4085417,25.2826 34.7433333,18.389 32.6127083,12.0974 C30.4835417,5.8058 24.3760417,1.5456 17.4839583,1.5456 M34.1104167,11.6298 C36.4510417,18.5458 33.8872917,26.1212 27.7608333,30.394 C21.6329167,34.6682 13.335,34.6682 7.20708333,30.394 C1.080625,26.1212 -1.48458333,18.5458 0.8575,11.6298 C3.19666667,4.7152 9.909375,0.0336 17.4839583,0.0336 C25.0570833,0.0336 31.77125,4.7152 34.1104167,11.6298" id="Fill-1" fill="#FFFFFF" mask="url(#mask-2)"></path>
                </g>
                <path d="M22.6081042,22.47252 C22.6081042,22.81972 22.3120625,23.10252 21.9518542,23.10252 L13.0151875,23.10252 C12.6549792,23.10252 12.3603958,22.81972 12.3603958,22.47252 L12.3603958,17.28272 L13.6451875,17.28272 C13.5708125,17.57112 13.5314375,17.87352 13.5314375,18.18432 C13.5314375,20.28012 15.3003958,21.97692 17.4820625,21.97692 C19.6666458,21.97692 21.4356042,20.28012 21.4356042,18.18432 C21.4356042,17.87352 21.3962292,17.57112 21.3218542,17.28272 L22.6081042,17.28272 L22.6081042,22.47252 Z M15.0874792,17.28272 C15.4637292,16.36432 16.3941458,15.71192 17.4820625,15.71192 C18.5728958,15.71192 19.5047708,16.36432 19.8810208,17.28272 C19.9947708,17.56132 20.0574792,17.86512 20.0574792,18.18432 C20.0574792,19.54652 18.9039375,20.65532 17.4820625,20.65532 C16.0645625,20.65532 14.9095625,19.54652 14.9095625,18.18432 C14.9095625,17.86512 14.9722708,17.56132 15.0874792,17.28272 Z M20.2674792,13.66372 C20.2674792,13.47052 20.4293542,13.31652 20.6306042,13.31652 L22.1997708,13.31652 C22.3981042,13.31652 22.5628958,13.47052 22.5628958,13.66372 L22.5628958,15.17152 C22.5628958,15.36332 22.3981042,15.51872 22.1997708,15.51872 L20.6306042,15.51872 C20.4293542,15.51872 20.2674792,15.36332 20.2674792,15.17152 L20.2674792,13.66372 Z M21.9518542,11.94312 L13.0151875,11.94312 C11.8937292,11.94312 10.9837292,12.81812 10.9837292,13.89472 L10.9837292,22.47252 C10.9837292,23.55052 11.8937292,24.42412 13.0151875,24.42412 L21.9518542,24.42412 C23.0733125,24.42412 23.9833125,23.55052 23.9833125,22.47252 L23.9833125,13.89472 C23.9833125,12.81812 23.0733125,11.94312 21.9518542,11.94312 Z" id="Fill-4" fill="#FFFFFF"></path>
            </g>
        </g>
    </g>
</svg>