<?xml version="1.0" encoding="UTF-8"?>
<svg width="35px" height="34px" viewBox="0 0 35 34" version="1.1" xmlns="http://www.w3.org/2000/svg" xmlns:xlink="http://www.w3.org/1999/xlink">
    <!-- Generator: Sketch 49.3 (51167) - http://www.bohemiancoding.com/sketch -->
    <title>Page 1</title>
    <desc>Created with Sketch.</desc>
    <defs>
        <polygon id="path-1" points="0 0.0336 34.9672882 0.0336 34.9672882 33.59965 0 33.59965"></polygon>
    </defs>
    <g id="Page-1" stroke="none" stroke-width="1" fill="none" fill-rule="evenodd">
        <g id="Home-(Demo)" transform="translate(-97.000000, -3015.000000)">
            <g id="Page-1" transform="translate(97.000000, 3014.000000)">
                <g id="Group-3" transform="translate(0.000000, 1.366400)">
                    <mask id="mask-2" fill="white">
                        <use xlink:href="#path-1"></use>
                    </mask>
                    <g id="Clip-2"></g>
                    <path d="M17.4846875,1.5456 C10.5926042,1.5456 4.48364583,5.8058 2.3559375,12.0974 C0.2253125,18.389 2.55864583,25.2826 8.13385417,29.1704 C13.7090625,33.061 21.2588542,33.061 26.8340625,29.1704 C32.4092708,25.2826 34.7426042,18.389 32.6119792,12.0974 C30.4828125,5.8058 24.3767708,1.5456 17.4846875,1.5456 M34.1096875,11.6298 C36.4517708,18.5458 33.8865625,26.1212 27.7601042,30.394 C21.6321875,34.6682 13.3342708,34.6682 7.2078125,30.394 C1.07989583,26.1212 -1.48385417,18.5458 0.856770833,11.6298 C3.19739583,4.7152 9.91010417,0.0336 17.4846875,0.0336 C25.0563542,0.0336 31.7705208,4.7152 34.1096875,11.6298" id="Fill-1" fill="#FFFFFF" mask="url(#mask-2)"></path>
                </g>
                <path d="M14.8941042,21.82432 C13.1338958,21.76552 12.0313958,20.55172 11.7411875,19.56612 C12.2311875,19.65572 12.7138958,19.63752 13.1936875,19.52412 C13.2068125,19.52132 13.2199375,19.51432 13.2432708,19.50312 C12.2895208,19.28892 11.5530625,18.80032 11.0397292,18.00932 C10.7028542,17.48432 10.5409792,16.91032 10.5453542,16.28032 C11.0207708,16.52392 11.5195208,16.66112 12.0532708,16.67372 C11.3372292,16.17812 10.8545208,15.52992 10.6576458,14.69972 C10.4622292,13.87232 10.5891042,13.08692 11.0222292,12.34492 C12.8568125,14.41832 15.1784792,15.55652 18.0120208,15.74412 C17.9916042,15.61392 17.9711875,15.50192 17.9580625,15.38712 C17.8618125,14.62132 18.0222292,13.90872 18.4524375,13.26052 C18.9920208,12.44852 19.7620208,11.94312 20.7507708,11.78912 C21.8911875,11.60992 22.8857708,11.92212 23.7184792,12.69632 C23.7738958,12.74952 23.8191042,12.76492 23.8978542,12.74952 C24.5949375,12.60252 25.2526458,12.36172 25.8695208,12.02012 C25.8841042,12.01172 25.9001458,12.00472 25.9147292,11.99772 C25.9191042,11.99632 25.9234792,11.99632 25.9366042,11.99632 C25.6697292,12.75372 25.1811875,13.33752 24.4855625,13.76732 C25.1418125,13.69732 25.7688958,13.53072 26.3741042,13.27872 C26.3784792,13.28432 26.3828542,13.28992 26.3872292,13.29412 C26.2574375,13.45652 26.1320208,13.62452 25.9978542,13.78272 C25.6376458,14.20832 25.2249375,14.58212 24.7655625,14.90692 C24.7261875,14.93352 24.7072292,14.96012 24.7086875,15.00912 C24.7276458,15.49212 24.7086875,15.97372 24.6459792,16.45252 C24.5161875,17.46472 24.2216042,18.42792 23.7738958,19.34912 C23.3086875,20.30112 22.7034792,21.15932 21.9407708,21.91392 C20.6501458,23.19492 19.0955625,24.02232 17.2843125,24.40732 C16.6616042,24.53752 16.0316042,24.60332 15.3957708,24.62152 C13.4416042,24.67612 11.6347292,24.20992 9.97222917,23.22432 C9.95035417,23.21172 9.9299375,23.19772 9.89202083,23.17532 C11.0747292,23.29712 12.1991042,23.15152 13.2826458,22.72732 C13.8572292,22.49912 14.3895208,22.20372 14.8941042,21.82432" id="Fill-4" fill="#FFFFFF"></path>
            </g>
        </g>
    </g>
</svg>