<?xml version="1.0" encoding="UTF-8"?>
<svg width="216px" height="151px" viewBox="0 0 216 151" version="1.1" xmlns="http://www.w3.org/2000/svg" xmlns:xlink="http://www.w3.org/1999/xlink">
    <!-- Generator: Sketch 49.3 (51167) - http://www.bohemiancoding.com/sketch -->
    <title>Group 2</title>
    <desc>Created with Sketch.</desc>
    <defs>
        <polygon id="path-1" points="0 63.875 63.875 63.875 63.875 0 0 0"></polygon>
        <polygon id="path-3" points="0 132 132 132 132 0 0 0"></polygon>
        <polygon id="path-5" points="0 0.125 31.875 0.125 31.875 32 0 32"></polygon>
        <polygon id="path-7" points="0 32.875 31.875 32.875 31.875 1 0 1"></polygon>
    </defs>
    <g id="Page-1" stroke="none" stroke-width="1" fill="none" fill-rule="evenodd">
        <g id="Home-(Demo)" transform="translate(-126.000000, -2728.000000)">
            <g id="Group-2" transform="translate(126.000000, 2727.000000)">
                <g id="Page-1" transform="translate(152.000000, 35.000000)">
                    <path d="M63.875,31.9375 C63.875,49.5765 49.576,63.8745 31.938,63.8745 C14.299,63.8745 0,49.5765 0,31.9375 C0,14.2985 14.299,0.0005 31.938,0.0005 C49.576,0.0005 63.875,14.2985 63.875,31.9375" id="Fill-1" fill="#FFFFFF"></path>
                    <mask id="mask-2" fill="white">
                        <use xlink:href="#path-1"></use>
                    </mask>
                    <g id="Clip-4"></g>
                    <polygon id="Fill-3" fill="#FF7443" mask="url(#mask-2)" points="18.872 40.914 45.003 40.914 45.003 23.929 18.872 23.929"></polygon>
                    <polygon id="Stroke-5" stroke="#FF7443" stroke-width="2.42" stroke-linecap="round" stroke-linejoin="round" mask="url(#mask-2)" points="18.872 40.914 45.003 40.914 45.003 23.929 18.872 23.929"></polygon>
                    <polyline id="Stroke-6" stroke="#FFFFFF" stroke-width="3" stroke-linecap="round" stroke-linejoin="round" mask="url(#mask-2)" points="16.9365 23.1548 31.9375 35.1548 46.9385 23.1548"></polyline>
                </g>
                <g id="Page-1" transform="translate(0.000000, 20.000000)">
                    <path d="M132,66 C132,102.451 102.451,132 66,132 C29.549,132 0,102.451 0,66 C0,29.549 29.549,0 66,0 C102.451,0 132,29.549 132,66" id="Fill-1" fill="#FFFFFF"></path>
                    <mask id="mask-4" fill="white">
                        <use xlink:href="#path-3"></use>
                    </mask>
                    <g id="Clip-4"></g>
                    <polygon id="Fill-3" fill="#FF7443" mask="url(#mask-4)" points="39 84.55 93 84.55 93 49.45 39 49.45"></polygon>
                    <polygon id="Stroke-5" stroke="#FF7443" stroke-width="5" stroke-linecap="round" stroke-linejoin="round" mask="url(#mask-4)" points="39 84.55 93 84.55 93 49.45 39 49.45"></polygon>
                    <polyline id="Stroke-6" stroke="#FFFFFF" stroke-width="5.741" stroke-linecap="round" stroke-linejoin="round" mask="url(#mask-4)" points="35 47.8501 66 72.6501 97 47.8501"></polyline>
                </g>
                <g id="Page-1" transform="translate(124.000000, 0.000000)">
                    <g id="Group-3" transform="translate(0.000000, 0.875000)">
                        <mask id="mask-6" fill="white">
                            <use xlink:href="#path-5"></use>
                        </mask>
                        <g id="Clip-2"></g>
                        <path d="M31.875,16.0625 C31.875,24.8645 24.739,32.0005 15.937,32.0005 C7.136,32.0005 0,24.8645 0,16.0625 C0,7.2605 7.136,0.1245 15.937,0.1245 C24.739,0.1245 31.875,7.2605 31.875,16.0625" id="Fill-1" fill="#FFFFFF" mask="url(#mask-6)"></path>
                    </g>
                    <mask id="mask-8" fill="white">
                        <use xlink:href="#path-7"></use>
                    </mask>
                    <g id="Clip-5"></g>
                    <polygon id="Fill-4" fill="#FF7443" mask="url(#mask-8)" points="9.418 21.417 22.457 21.417 22.457 12.941 9.418 12.941"></polygon>
                    <polygon id="Stroke-6" stroke="#FF7443" stroke-width="1.207" stroke-linecap="round" stroke-linejoin="round" mask="url(#mask-8)" points="9.418 21.417 22.457 21.417 22.457 12.941 9.418 12.941"></polygon>
                    <polyline id="Stroke-7" stroke="#FFFFFF" stroke-width="1.5" stroke-linecap="round" stroke-linejoin="round" mask="url(#mask-8)" points="8.4521 12.5547 15.9371 18.5437 23.4231 12.5547"></polyline>
                </g>
            </g>
        </g>
    </g>
</svg>