<svg id="Capa_1" data-name="Capa 1" xmlns="http://www.w3.org/2000/svg" viewBox="0 0 1000 1000"><defs><style>.cls-1{fill:#5573d3;}.cls-2{fill:#e17347;}.cls-3{fill:gray;}</style></defs><title>Mesa de trabajo 1</title><path class="cls-1" d="M373.55,435.11V622.05a97.08,97.08,0,0,0,85.31-96.35V435.11Z"/><path class="cls-1" d="M213.21,435.11V525.7a97.06,97.06,0,0,0,85.57,96.38v-187Z"/><polygon class="cls-2" points="213.21 377.22 213.21 422.61 310.29 422.61 310.29 422.9 310.99 422.9 310.99 622.78 361.34 622.78 361.34 422.9 361.65 422.9 361.65 422.61 458.86 422.61 458.86 377.22 213.21 377.22"/><path class="cls-3" d="M538.2,487.35V436.42H519.92v-6.33h44.2v6.33h-18.4v50.93Z"/><path class="cls-3" d="M587.72,488.22a19.49,19.49,0,0,1-8.2-1.69,17,17,0,0,1-6.06-4.58,21,21,0,0,1-3.66-6.69,25.19,25.19,0,0,1-1.27-8.08,24.24,24.24,0,0,1,2.3-10.68,18.58,18.58,0,0,1,6.7-7.65A18.27,18.27,0,0,1,587.72,446a15,15,0,0,1,7.8,2.09,14.15,14.15,0,0,1,5.33,5.34V447H608v40.35h-7.24v-6.88a13,13,0,0,1-5.15,5.68A15,15,0,0,1,587.72,488.22Zm1-5.9q6,0,9.18-4.19t3.17-11.27q0-6.67-3.23-10.83t-9.2-4.15q-6.28,0-9.58,4.17T575.8,467q0,6.81,3.3,11.07T588.74,482.32Z"/><path class="cls-3" d="M621.58,487.35V457.54c0-1.36-.15-4.87-.43-10.54h7.51l.08,6.53a11.89,11.89,0,0,1,5.15-5.54,15.42,15.42,0,0,1,7.75-2,12.47,12.47,0,0,1,12.27,8.73,16.65,16.65,0,0,1,6-6.41,15.79,15.79,0,0,1,8.48-2.32q6.88,0,10.44,4.39t3.56,12.29v24.69H675.1v-24.1q0-5.36-1.81-8.36a6,6,0,0,0-5.58-3,11.29,11.29,0,0,0-8.32,3.52,12.7,12.7,0,0,0-3.71,8.67v23.28h-7.24V462.62a14.26,14.26,0,0,0-1.89-7.79c-1.26-2-3.26-2.95-6-2.95a11.15,11.15,0,0,0-8.06,3.19,11.48,11.48,0,0,0-3.62,7.7v24.58Z"/><path class="cls-3" d="M695.36,487.35V447h7.19v40.35Zm0-50.53v-6.73h7.15v6.73Z"/><path class="cls-3" d="M732.21,488.22a19.49,19.49,0,0,1-8.2-1.69A17,17,0,0,1,718,482a21,21,0,0,1-3.66-6.69,25.19,25.19,0,0,1-1.27-8.08,24.24,24.24,0,0,1,2.3-10.68,18.58,18.58,0,0,1,6.7-7.65A18.27,18.27,0,0,1,732.21,446a15,15,0,0,1,7.8,2.09,14.15,14.15,0,0,1,5.33,5.34V447h7.16v40.35h-7.24v-6.88a13,13,0,0,1-5.15,5.68A15,15,0,0,1,732.21,488.22Zm1-5.9q6,0,9.18-4.19t3.17-11.27q0-6.67-3.23-10.83t-9.2-4.15q-6.28,0-9.58,4.17T720.29,467q0,6.81,3.3,11.07T733.23,482.32Z"/><path class="cls-3" d="M786.79,487.35h-3.34q-8.57-.08-11.74-3.06t-3.16-10.9V451.84H760.8V447h7.9V436.62l7.08-2.08V447h10.94v4.84H775.78v22a16.54,16.54,0,0,0,.3,3.5,6.35,6.35,0,0,0,.92,2.26,3.62,3.62,0,0,0,2,1.35,15.07,15.07,0,0,0,3.1.61q1.74.18,4.68.18Z"/><path class="cls-3" d="M551.93,563.11a30.46,30.46,0,0,1-10.78-1.91,27.43,27.43,0,0,1-9-5.46,24.9,24.9,0,0,1-6.18-9.15,32.79,32.79,0,0,1-2.28-12.5,34.75,34.75,0,0,1,2.14-12.37,27.58,27.58,0,0,1,5.88-9.56,26.61,26.61,0,0,1,8.87-6,28.14,28.14,0,0,1,11-2.16q10.82,0,18,5.9l-3,5.11a23.73,23.73,0,0,0-14.48-4.68,19.23,19.23,0,0,0-10.85,3.13,20.11,20.11,0,0,0-7.22,8.51A28.49,28.49,0,0,0,531.64,534q0,10.43,5.76,16.59a19.42,19.42,0,0,0,14.88,6.18,26.56,26.56,0,0,0,16.21-5.66l2.51,6A31.42,31.42,0,0,1,551.93,563.11Z"/><path class="cls-3" d="M582.49,562.25V505h9.12q1,2.28,8.85,20.2t11.92,27.35q4.05-9.48,12-27.37T633.3,505h8.93v57.27h-7.16v-45q-3.86,8.89-11.23,25.35t-8.79,19.69h-5.39l-17-38.27-2.95-7.08v45.35Z"/><path class="cls-3" d="M673.77,556.78a19.81,19.81,0,0,0,4.26-.43,12.54,12.54,0,0,0,3.33-1.24,8.46,8.46,0,0,0,2.38-2,8.1,8.1,0,0,0,1.43-2.75,13.37,13.37,0,0,0,0-6.88,6.75,6.75,0,0,0-1.65-2.66,11.41,11.41,0,0,0-3.32-2.26,41,41,0,0,0-5.57-2.06c-.24-.08-.81-.25-1.71-.5s-1.5-.42-1.79-.53q-8.22-2.36-12-6t-3.76-10.42a13.74,13.74,0,0,1,2.52-8.3,14.92,14.92,0,0,1,6.74-5.13,26.42,26.42,0,0,1,9.73-1.67q11.61,0,17.66,6L688.36,515a16.5,16.5,0,0,0-5.43-3.34,20.11,20.11,0,0,0-7.59-1.38,15.33,15.33,0,0,0-8.67,2.17,7.15,7.15,0,0,0-3.25,6.37,10.84,10.84,0,0,0,.77,4.48,6.76,6.76,0,0,0,2.79,2.87,30.49,30.49,0,0,0,6.12,2.52s.54.17,1.47.43l1.87.51a52.13,52.13,0,0,1,8.28,3.11,17.81,17.81,0,0,1,5.21,3.72,11.87,11.87,0,0,1,2.75,4.62,20.18,20.18,0,0,1,.79,6A16,16,0,0,1,692,554.2a13.34,13.34,0,0,1-4.19,5,19.79,19.79,0,0,1-6.14,2.91,27.76,27.76,0,0,1-7.55,1,29.64,29.64,0,0,1-11.46-2.1,24.39,24.39,0,0,1-7.38-4.35l3.35-5.43a29.12,29.12,0,0,0,6.6,3.78A21.4,21.4,0,0,0,673.77,556.78Z"/></svg>