<?xml version="1.0" encoding="UTF-8"?>
<svg width="37px" height="37px" viewBox="0 0 37 37" version="1.1" xmlns="http://www.w3.org/2000/svg" xmlns:xlink="http://www.w3.org/1999/xlink">
    <!-- Generator: Sketch 49.3 (51167) - http://www.bohemiancoding.com/sketch -->
    <title>Page 1</title>
    <desc>Created with Sketch.</desc>
    <defs></defs>
    <g id="Page-1" stroke="none" stroke-width="1" fill="none" fill-rule="evenodd">
        <g id="Styles-(Version-1)" transform="translate(-508.000000, -5110.000000)">
            <g id="Page-1" transform="translate(509.000000, 5111.000000)">
                <circle id="Oval-2" stroke="#4374D8" fill="#4374D8" cx="17.5" cy="17.5" r="17.5"></circle>
                <path d="M22.6081042,22.47252 C22.6081042,22.81972 22.3120625,23.10252 21.9518542,23.10252 L13.0151875,23.10252 C12.6549792,23.10252 12.3603958,22.81972 12.3603958,22.47252 L12.3603958,17.28272 L13.6451875,17.28272 C13.5708125,17.57112 13.5314375,17.87352 13.5314375,18.18432 C13.5314375,20.28012 15.3003958,21.97692 17.4820625,21.97692 C19.6666458,21.97692 21.4356042,20.28012 21.4356042,18.18432 C21.4356042,17.87352 21.3962292,17.57112 21.3218542,17.28272 L22.6081042,17.28272 L22.6081042,22.47252 Z M15.0874792,17.28272 C15.4637292,16.36432 16.3941458,15.71192 17.4820625,15.71192 C18.5728958,15.71192 19.5047708,16.36432 19.8810208,17.28272 C19.9947708,17.56132 20.0574792,17.86512 20.0574792,18.18432 C20.0574792,19.54652 18.9039375,20.65532 17.4820625,20.65532 C16.0645625,20.65532 14.9095625,19.54652 14.9095625,18.18432 C14.9095625,17.86512 14.9722708,17.56132 15.0874792,17.28272 Z M20.2674792,13.66372 C20.2674792,13.47052 20.4293542,13.31652 20.6306042,13.31652 L22.1997708,13.31652 C22.3981042,13.31652 22.5628958,13.47052 22.5628958,13.66372 L22.5628958,15.17152 C22.5628958,15.36332 22.3981042,15.51872 22.1997708,15.51872 L20.6306042,15.51872 C20.4293542,15.51872 20.2674792,15.36332 20.2674792,15.17152 L20.2674792,13.66372 Z M21.9518542,11.94312 L13.0151875,11.94312 C11.8937292,11.94312 10.9837292,12.81812 10.9837292,13.89472 L10.9837292,22.47252 C10.9837292,23.55052 11.8937292,24.42412 13.0151875,24.42412 L21.9518542,24.42412 C23.0733125,24.42412 23.9833125,23.55052 23.9833125,22.47252 L23.9833125,13.89472 C23.9833125,12.81812 23.0733125,11.94312 21.9518542,11.94312 Z" id="Fill-4" fill="#FFFFFF"></path>
            </g>
        </g>
    </g>
</svg>