<?xml version="1.0" encoding="UTF-8"?>
<svg width="37px" height="37px" viewBox="0 0 37 37" version="1.1" xmlns="http://www.w3.org/2000/svg" xmlns:xlink="http://www.w3.org/1999/xlink">
    <!-- Generator: Sketch 49.3 (51167) - http://www.bohemiancoding.com/sketch -->
    <title>Page 1</title>
    <desc>Created with Sketch.</desc>
    <defs></defs>
    <g id="Page-1" stroke="none" stroke-width="1" fill="none" fill-rule="evenodd">
        <g id="Styles-(Version-1)" transform="translate(-453.000000, -5110.000000)">
            <g id="Page-1" transform="translate(454.000000, 5111.000000)">
                <circle id="Oval-2" stroke="#4374D8" fill="#4374D8" cx="17.5" cy="17.5" r="17.5"></circle>
                <path d="M16.8949375,19.9723125 C16.8818125,20.0175208 16.8701458,20.0554375 16.8613958,20.0933542 C16.2809792,22.3610625 16.2182708,22.8627292 15.6232708,23.9156458 C15.3403542,24.4158542 15.0209792,24.8898125 14.6680625,25.3433542 C14.6272292,25.3943958 14.5907708,25.4614792 14.5105625,25.4454375 C14.4230625,25.4250208 14.4172292,25.3491875 14.4084792,25.2777292 C14.3122292,24.5893958 14.2582708,23.8981458 14.2816042,23.2039792 C14.3122292,22.2983542 14.4259792,21.9877292 15.5911875,17.0789792 C15.6086875,17.0031458 15.5882708,16.9404375 15.5649375,16.8733542 C15.2849375,16.1179375 15.2295208,15.3537708 15.4730625,14.5793958 C16.0024375,12.9037708 17.9011875,12.7754375 18.2322292,14.1579375 C18.4378542,15.0125208 17.8968125,16.1296042 17.4811875,17.7833542 C17.1370208,19.1483542 18.7426458,20.1181458 20.1149375,19.1206458 C21.3793125,18.2033542 21.8707708,16.0027292 21.7788958,14.4437708 C21.5936875,11.3346042 18.1841042,10.6623125 16.0199375,11.6641875 C13.5407708,12.8104375 12.9763958,15.8831458 14.0978542,17.2889792 C14.2393125,17.4668958 14.3486875,17.5762708 14.3020208,17.7571042 C14.2291042,18.0400208 14.1663958,18.3229375 14.0876458,18.6029375 C14.0307708,18.8100208 13.8557708,18.8858542 13.6443125,18.7998125 C13.2330625,18.6335625 12.8888958,18.3696042 12.6103542,18.0254375 C11.6595208,16.8471042 11.3882708,14.5196042 12.6453542,12.5464792 C14.0380625,10.3618958 16.6280625,9.47960417 18.9934792,9.74647917 C21.8182708,10.0687708 23.6047292,11.9981458 23.9386875,14.1885625 C24.0918125,15.1860625 23.9809792,17.6462708 22.5809792,19.3846042 C20.9709792,21.3825208 18.3591042,21.5152292 17.1545208,20.2887708 C17.0611875,20.1939792 16.9853542,20.0846042 16.8949375,19.9723125" id="Fill-3" fill="#FFFFFF"></path>
            </g>
        </g>
    </g>
</svg>